#N canvas 717 78 754 650 10;
#X obj 194 19 loadbang;
#X obj 153 18 bng 15 250 50 0 empty empty empty 17 7 0 10 -262144 -1
-1;
#X obj 188 66 dollarg;
#X msg 264 116 @ 1 2 3 @ a b c;
#X obj 189 177 t a b;
#X obj 187 264 y.list.attr;
#X obj 165 351 print attr;
#X msg 288 298 ------------;
#X connect 0 0 2 0;
#X connect 1 0 2 0;
#X connect 2 0 4 0;
#X connect 3 0 4 0;
#X connect 4 0 5 0;
#X connect 4 1 7 0;
#X connect 5 0 6 0;
#X connect 7 0 6 0;
