#N canvas 928 295 543 434 10;
#X obj 135 45 inlet;
#X obj 161 104 list split 1;
#X obj 167 178 t b a;
#X obj 192 140 list append;
#X obj 220 236 list trim;
#X obj 200 324 outlet;
#X obj 194 204 route symbol list float;
#X connect 0 0 1 0;
#X connect 1 0 2 0;
#X connect 1 1 3 1;
#X connect 2 0 3 0;
#X connect 2 1 6 0;
#X connect 3 0 1 0;
#X connect 4 0 5 0;
#X connect 6 0 5 0;
#X connect 6 1 4 0;
#X connect 6 2 5 0;
