#N canvas 0 22 678 707 10;
#X obj 251 329 select @;
#X obj 225 444 list append;
#X obj 417 404 t l;
#X text 455 378 <-- build;
#X obj 225 533 spigot;
#X obj 255 498 list length;
#X obj 230 473 t a a;
#X text 323 534 <-- non-empty lists only;
#X obj 212 238 y.list.drip;
#X obj 317 377 list prepend;
#X obj 115 349 t b b b;
#X obj 227 562 list trim;
#X obj 90 152 t b b a;
#X obj 215 617 outlet attr;
#X obj 89 100 inlet list;
#X connect 0 0 10 0;
#X connect 0 1 9 0;
#X connect 1 0 6 0;
#X connect 2 0 9 1;
#X connect 4 0 11 0;
#X connect 5 0 4 1;
#X connect 6 0 4 0;
#X connect 6 1 5 0;
#X connect 8 0 0 0;
#X connect 9 0 2 0;
#X connect 9 0 1 1;
#X connect 10 0 1 1;
#X connect 10 1 1 0;
#X connect 10 2 9 1;
#X connect 11 0 13 0;
#X connect 12 1 10 0;
#X connect 12 2 8 0;
#X connect 14 0 12 0;
